<?xml version="1.0" encoding="UTF-8" standalone="no"?>
<svg
   height="1024"
   width="640"
   version="1.1"
   id="svg11"
   sodipodi:docname="appiconfg.svg"
   inkscape:version="1.1 (c68e22c387, 2021-05-23)"
   xmlns:inkscape="http://www.inkscape.org/namespaces/inkscape"
   xmlns:sodipodi="http://sodipodi.sourceforge.net/DTD/sodipodi-0.dtd"
   xmlns="http://www.w3.org/2000/svg"
   xmlns:svg="http://www.w3.org/2000/svg">
  <defs
     id="defs15" />
  <sodipodi:namedview
     id="namedview13"
     pagecolor="#ffffff"
     bordercolor="#000000"
     borderopacity="0.25"
     inkscape:showpageshadow="2"
     inkscape:pageopacity="0.0"
     inkscape:pagecheckerboard="0"
     inkscape:deskcolor="#d1d1d1"
     showgrid="false"
     inkscape:zoom="0.23046875"
     inkscape:cx="-173.55932"
     inkscape:cy="509.83051"
     inkscape:window-width="1350"
     inkscape:window-height="729"
     inkscape:window-x="0"
     inkscape:window-y="0"
     inkscape:window-maximized="0"
     inkscape:current-layer="svg11"
     inkscape:pageshadow="2" />
  <path
     style="fill:#000000;stroke-width:0.711595"
     d="m 434.61606,368.34868 c -55.34116,0 -86.90257,58.60847 -86.90257,143.61791 0,47.29771 38.28192,67.71344 36.7934,118.87992 -0.81722,28.36625 -19.21834,61.61139 -19.21834,82.48065 0,61.28156 27.81796,94.80845 69.32751,94.80845 41.50956,0 65.36299,-50.28001 75.16377,-110.95 12.51254,-77.44373 25.05458,-127.6138 25.05458,-174.91151 0,-85.00944 -44.86981,-153.92542 -100.21835,-153.92542 z"
     id="path334" />
  <path
     style="fill:#000000;stroke-width:0.665772"
     d="m 214.73824,211.52542 c -51.49823,0 -93.24671,64.83639 -93.24671,144.81356 0,44.49784 11.66955,91.69801 23.31168,164.55734 9.11898,57.07852 31.31307,104.38213 69.93503,104.38213 38.62197,0 64.50479,-31.5422 64.50479,-89.1961 0,-19.63387 -17.12037,-50.91101 -17.88143,-77.59808 -1.38498,-48.13759 34.23389,-67.34478 34.23389,-111.84262 0,-79.97717 -29.36586,-135.11623 -80.85725,-135.11623 z"
     id="path9" />
</svg>
